HIERARCHY
ROOT Hips
{
	OFFSET -0.001795 -0.223333 0.028219
	CHANNELS 6 Xposition Yposition Zposition Zrotation Yrotation Xrotation 
	JOINT LeftUpLeg
	{
		OFFSET 0.069520 -0.091406 -0.006815
		CHANNELS 3 Zrotation Yrotation Xrotation
		JOINT LeftLeg
		{
			OFFSET 0.034277 -0.375199 -0.004496
			CHANNELS 3 Zrotation Yrotation Xrotation
			JOINT LeftFoot
			{
				OFFSET -0.013596 -0.397961 -0.043693
				CHANNELS 3 Zrotation Yrotation Xrotation
				JOINT LeftToe
				{
					OFFSET 0.026358 -0.055791 0.119288
					CHANNELS 3 Zrotation Yrotation Xrotation
					End Site
					{
						OFFSET 0.000000 0.000000 0.000000
					}
				}
			}
		}
	}
	JOINT RightUpLeg
	{
		OFFSET -0.067670 -0.090522 -0.004320
		CHANNELS 3 Zrotation Yrotation Xrotation
		JOINT RightLeg
		{
			OFFSET -0.038290 -0.382569 -0.008850
			CHANNELS 3 Zrotation Yrotation Xrotation
			JOINT RightFoot
			{
				OFFSET 0.015774 -0.398415 -0.042312
				CHANNELS 3 Zrotation Yrotation Xrotation
				JOINT RightToe
				{
					OFFSET -0.025372 -0.048144 0.123348
					CHANNELS 3 Zrotation Yrotation Xrotation
					End Site
					{
						OFFSET 0.000000 0.000000 0.000000
					}
				}
			}
		}
	}
	JOINT Spine
	{
		OFFSET -0.002533 0.108963 -0.026696
		CHANNELS 3 Zrotation Yrotation Xrotation
		JOINT Spine1
		{
			OFFSET 0.005487 0.135180 0.001092
			CHANNELS 3 Zrotation Yrotation Xrotation
			JOINT Spine2
			{
				OFFSET 0.001457 0.052922 0.025425
				CHANNELS 3 Zrotation Yrotation Xrotation
				JOINT Neck
				{
					OFFSET -0.002778 0.213870 -0.042857
					CHANNELS 3 Zrotation Yrotation Xrotation
					JOINT Head
					{
						OFFSET 0.005152 0.064970 0.051349
						CHANNELS 3 Zrotation Yrotation Xrotation
						End Site
						{
							OFFSET 0.000000 0.000000 0.000000
						}
					}
				}
				JOINT LeftShoulder
				{
					OFFSET 0.078845 0.121749 -0.034090
					CHANNELS 3 Zrotation Yrotation Xrotation
					JOINT LeftArm
					{
						OFFSET 0.090977 0.030469 -0.008868
						CHANNELS 3 Zrotation Yrotation Xrotation
						JOINT LeftForeArm
						{
							OFFSET 0.259612 -0.012772 -0.027456
							CHANNELS 3 Zrotation Yrotation Xrotation
							JOINT LeftHand
							{
								OFFSET 0.249234 0.008986 -0.001171
								CHANNELS 3 Zrotation Yrotation Xrotation
								End Site
								{
									OFFSET 0.000000 0.000000 0.000000
								}
							}
						}
					}
				}
				JOINT RightShoulder
				{
					OFFSET -0.081759 0.118833 -0.038615
					CHANNELS 3 Zrotation Yrotation Xrotation
					JOINT RightArm
					{
						OFFSET -0.096012 0.032551 -0.009143
						CHANNELS 3 Zrotation Yrotation Xrotation
						JOINT RightForeArm
						{
							OFFSET -0.253742 -0.013329 -0.021401
							CHANNELS 3 Zrotation Yrotation Xrotation
							JOINT RightHand
							{
								OFFSET -0.255298 0.007772 -0.005559
								CHANNELS 3 Zrotation Yrotation Xrotation
								End Site
								{
									OFFSET 0.000000 0.000000 0.000000
								}
							}
						}
					}
				}
			}
		}
	}
}
MOTION
Frames: 10
Frame Time: 0.050000
0.000000 0.505814 0.000000 -4.047530 -11.095821 -1.890153 7.581260 0.000073 -13.806769 5.202213 -3.967266 112.432206 -4.173673 -22.898999 -13.160680 0.000000 0.000000 0.000000 -5.024822 1.388003 -16.634776 8.255511 5.324848 113.469045 -2.338669 -2.842586 -8.630008 0.000000 0.000000 0.000000 2.348773 -1.024751 35.361313 -9.440738 2.256535 -31.173493 2.894113 7.035186 19.391315 11.393120 -4.592687 -26.803422 0.000000 0.000000 0.000000 -44.973533 -16.581842 9.687446 -20.888918 -7.461765 -2.055966 -0.848151 -30.962149 1.293828 0.000000 0.000000 0.000000 52.266607 9.293031 4.515156 26.882668 6.931030 -2.318615 -5.071171 36.654694 -0.277991 0.000000 0.000000 0.000000 
-0.000778 0.500206 0.002553 -5.016029 -13.369924 -1.229181 7.948230 0.133261 -13.279309 6.814223 -4.634391 113.916111 -6.141532 -24.622420 -9.747276 0.000000 0.000000 0.000000 -3.849938 1.592720 -16.914799 10.217413 4.101241 115.621686 -2.044551 -3.362967 -5.579251 0.000000 0.000000 0.000000 3.453255 -1.139140 34.303579 -13.509822 3.053979 -30.858616 6.091638 6.050869 20.163265 9.716344 -3.745417 -28.529790 0.000000 0.000000 0.000000 -47.361711 -16.813833 11.625083 -18.086253 -8.529105 -1.942655 -0.358255 -30.573386 1.075899 0.000000 0.000000 0.000000 50.952751 9.823196 3.296545 26.459448 5.582165 -2.197624 -4.363856 36.612824 -0.123277 0.000000 0.000000 0.000000 
-0.001366 0.501114 0.003679 -5.249238 -13.731889 -0.806873 8.935486 0.290103 -12.746087 7.431720 -5.248486 113.503989 -8.577398 -24.136825 -4.199515 0.000000 0.000000 0.000000 -2.316455 1.594213 -15.628449 11.987367 0.968894 115.728734 -4.230138 -9.025540 -9.566131 0.000000 0.000000 0.000000 5.547009 -1.726737 33.359254 -12.717738 3.055470 -27.992191 3.231656 6.827172 18.582520 10.341442 -3.820076 -29.550575 0.000000 0.000000 0.000000 -46.823913 -18.133211 12.285047 -17.838969 -8.753616 -1.809985 -0.733500 -28.954011 1.120218 0.000000 0.000000 0.000000 52.163423 11.277958 5.249874 24.345345 5.550883 -2.100637 -7.595048 37.003436 -1.170733 0.000000 0.000000 0.000000 
-0.001722 0.499125 0.003753 -5.395110 -15.754350 -0.982954 7.974478 0.210884 -11.961252 8.144009 -4.167556 114.051169 -9.685375 -24.156997 -1.723540 0.000000 0.000000 0.000000 -1.884487 1.699473 -15.880064 12.989620 1.297551 117.103663 -4.342356 -9.790809 -8.529911 0.000000 0.000000 0.000000 5.857897 -1.592377 33.284335 -13.325514 3.069662 -29.780473 3.548635 7.886300 20.397502 10.754986 -3.533086 -32.979608 0.000000 0.000000 0.000000 -46.991866 -18.059319 12.452575 -16.627946 -10.011172 -1.689441 -0.645737 -28.369959 1.056730 0.000000 0.000000 0.000000 51.762361 9.904309 3.854093 23.999516 6.106435 -2.064818 -6.697656 37.395399 -0.887138 0.000000 0.000000 0.000000 
-0.002023 0.500118 0.002920 -5.673033 -16.473922 -1.034759 7.922814 0.226234 -11.630450 8.717401 -4.326796 113.764602 -7.705153 -24.676184 -6.175606 0.000000 0.000000 0.000000 -1.769981 1.648284 -15.331190 13.504243 1.127353 117.037536 -4.841808 -10.890949 -12.924899 0.000000 0.000000 0.000000 6.212245 -1.621421 32.448406 -13.373979 3.218060 -27.646407 3.448223 7.722586 18.602109 11.508017 -4.166332 -31.280361 0.000000 0.000000 0.000000 -47.483464 -18.674953 13.299016 -16.281616 -9.970628 -1.629612 0.135019 -25.977850 0.783331 0.000000 0.000000 0.000000 51.358738 9.808789 3.266879 23.793244 5.706171 -1.937861 -7.909682 36.658484 -1.268418 0.000000 0.000000 0.000000 
-0.002048 0.499721 0.001231 -6.021438 -17.225820 -1.256282 8.444703 0.327716 -11.030459 8.794304 -3.731413 113.977946 -6.890905 -24.347379 -7.576243 0.000000 0.000000 0.000000 -1.679340 1.705434 -15.620015 13.371500 2.263428 117.671609 -4.937908 -11.305694 -13.206389 0.000000 0.000000 0.000000 6.405496 -1.603448 33.005175 -13.552609 3.217621 -28.031415 3.817771 7.518062 19.440152 10.646235 -3.832528 -31.440027 0.000000 0.000000 0.000000 -47.295644 -19.264710 14.186866 -17.064740 -11.637757 -1.612458 1.011648 -23.458641 0.523509 0.000000 0.000000 0.000000 50.978442 9.865028 2.963616 23.542823 5.831983 -1.879635 -8.083303 36.641286 -1.335327 0.000000 0.000000 0.000000 
-0.002000 0.500434 -0.000805 -6.043569 -17.965782 -1.318437 8.209326 0.328983 -11.428719 9.555418 -4.346994 114.207185 -6.259220 -25.715904 -9.765718 0.000000 0.000000 0.000000 -1.459439 1.787887 -15.997826 13.748436 2.338849 118.163665 -4.927542 -11.162269 -15.404584 0.000000 0.000000 0.000000 6.504507 -1.551929 33.159707 -13.915162 3.260014 -28.434943 4.024773 7.048548 19.827465 10.683664 -4.090034 -30.899795 0.000000 0.000000 0.000000 -47.198735 -19.011300 14.497976 -17.157110 -12.440829 -1.638805 1.237234 -22.302508 0.445555 0.000000 0.000000 0.000000 50.685766 9.625711 2.135429 23.484677 5.714516 -1.801758 -7.644499 36.359971 -1.196748 0.000000 0.000000 0.000000 
-0.002023 0.499646 -0.002513 -5.992322 -18.678724 -1.450585 7.986987 0.330511 -11.811130 9.974296 -4.376828 114.490417 -6.514830 -25.605602 -9.057533 0.000000 0.000000 0.000000 -1.246684 1.832985 -16.111729 13.897653 2.900875 118.655814 -5.011772 -11.554617 -16.423849 0.000000 0.000000 0.000000 5.883109 -1.291788 33.578034 -13.223563 3.041326 -28.980007 4.164944 6.983491 20.575980 10.289332 -4.043642 -30.624684 0.000000 0.000000 0.000000 -46.795146 -19.213762 14.940517 -17.608303 -12.945021 -1.695157 1.907433 -21.710985 0.306193 0.000000 0.000000 0.000000 50.880693 10.029644 2.230213 22.868446 6.242235 -1.665479 -8.047767 35.012488 -1.268590 0.000000 0.000000 0.000000 
-0.002206 0.498408 -0.003454 -5.983616 -19.575252 -1.766424 8.009668 0.374227 -11.853121 10.524887 -4.505200 114.898485 -6.636931 -25.709752 -8.750067 0.000000 0.000000 0.000000 -1.339095 1.885514 -16.432545 14.162749 3.403378 119.262828 -4.834666 -11.154798 -15.564219 0.000000 0.000000 0.000000 5.825511 -1.176055 33.738148 -13.747441 3.161190 -28.702885 4.715748 6.846991 20.348490 10.147899 -4.142503 -30.026703 0.000000 0.000000 0.000000 -46.953158 -19.293150 15.368677 -17.737361 -13.272994 -1.710778 1.459316 -21.490087 0.377489 0.000000 0.000000 0.000000 51.150460 10.179736 1.920246 22.720651 6.463468 -1.534962 -8.054703 33.000726 -1.188155 0.000000 0.000000 0.000000 
-0.002612 0.496803 -0.003470 -5.916871 -20.370136 -2.080632 7.692249 0.348992 -11.609248 10.658893 -3.834044 115.163467 -6.384665 -24.901147 -8.598693 0.000000 0.000000 0.000000 -1.582609 1.860039 -16.325403 14.197277 4.409738 119.481059 -4.626884 -10.581800 -14.467827 0.000000 0.000000 0.000000 5.606230 -1.022146 33.787283 -13.710501 3.130926 -28.751612 4.993462 6.642143 20.570600 9.619348 -4.050129 -29.524585 0.000000 0.000000 0.000000 -47.196731 -19.059983 15.591272 -17.765269 -13.520916 -1.758302 1.228025 -21.408109 0.409205 0.000000 0.000000 0.000000 51.721992 10.622915 1.861930 22.504794 6.875268 -1.386336 -7.583084 30.773044 -0.971566 0.000000 0.000000 0.000000 
